<?xml version="1.0" encoding="UTF-8"?>
<svg id="a" data-name="Layer 1" xmlns="http://www.w3.org/2000/svg" width="999.419" height="570.439" viewBox="0 0 999.419 570.439">
  <path d="M498.861,570.439c-111.503-.095-181.967-9.45-250.116-18.497-57.81-7.675-112.414-14.923-190.337-16.746-15.709-.367-30.408-6.764-41.388-18.012-10.976-11.243-17.02-26.087-17.02-41.797V107.882c0-15.67,6.021-30.484,16.956-41.712,10.913-11.206,25.542-17.631,41.193-18.092,83.14-2.448,140.131-12.675,200.468-23.502C325,12.664,393.63,.349,497.471,.007v-.007h4.479V.007c103.876,.347,172.483,12.659,238.854,24.569,60.337,10.827,117.329,21.054,200.469,23.502,15.651,.461,30.28,6.886,41.193,18.092,10.934,11.228,16.955,26.042,16.955,41.712V475.388c0,15.71-6.044,30.554-17.02,41.797-10.98,11.248-25.679,17.645-41.389,18.012-77.924,1.822-132.527,9.071-190.336,16.746-68.149,9.047-138.613,18.401-250.116,18.496h0s-1.698,0-1.698,0Z" fill="#ee7f2e"/>
  <path d="M498.861,549.439c204.097,0,268.128-31.18,441.659-35.236,21.074-.493,37.899-17.735,37.899-38.815V107.882c0-21.031-16.745-38.194-37.767-38.813-181.128-5.333-246.919-48.069-443.183-48.069h4.478c-196.264,0-262.055,42.736-443.183,48.069-21.021,.619-37.767,17.782-37.767,38.813V475.388c0,21.08,16.825,38.322,37.899,38.815,173.532,4.057,237.562,35.236,441.659,35.236h-1.698Z" fill="#efe8d8"/>
  <g>
    <g>
      <path d="M212.379,292.288c-.671,3.8-2.123,7.355-4.197,9.963-2.59,3.253-5.98,5.045-9.518,5.045-3.923,0-7.559-2.146-10.236-6.04-2.518-3.663-3.903-8.495-3.903-13.606v-.01c0-5.112,1.386-9.944,3.903-13.606,2.678-3.895,6.313-6.04,10.236-6.04,3.537,0,6.911,1.791,9.5,5.044,2.104,2.645,3.58,6.136,4.241,9.964h-4.354c-1.225-6.444-4.624-11.484-9.387-11.484-2.544,0-5.023,1.823-6.92,4.582-2.057,2.991-2.985,7.243-2.985,11.541v.01c0,4.298,.929,8.549,2.985,11.541,1.896,2.758,4.376,4.582,6.92,4.582,4.879,0,8.131-5.096,9.358-11.484h4.356Z" fill="#363d50"/>
      <path d="M234.56,306.233c.1-6.153,.148-12.394,.148-18.721-.002-6.237-.052-12.391-.148-18.459h4.119c-.098,5.464-.151,11.004-.162,16.619,2.738,.093,5.443,.145,8.355,.145,2.666,0,5.237-.043,7.758-.121-.01-5.617-.059-11.164-.146-16.643h4.119c-.108,6.078-.163,12.249-.164,18.515,.002,6.317,.057,12.539,.164,18.665h-4.118c.089-5.479,.137-11.025,.146-16.642-2.547-.077-5.029-.119-7.755-.117-2.847,.002-5.664,.051-8.358,.14,.012,5.616,.065,11.156,.162,16.619h-4.119Z" fill="#363d50"/>
      <path d="M282.309,294.774l-.05-25.704h4.246l-.219,25.704c0,2.678,.859,5.4,2.484,6.922,3.106,2.849,7.875,2.849,10.982,0,1.625-1.521,2.484-4.244,2.484-6.922l-.235-25.704h4.263l-.05,25.704c0,2.665-.603,6.452-3.71,9.36-2.186,2.047-5.113,3.174-8.243,3.174s-6.058-1.128-8.244-3.174c-1.715-1.605-3.709-4.532-3.709-9.36Z" fill="#363d50"/>
      <path d="M329.904,306.229c.227-14.994,.191-22.933,0-37.166l11.582-.009c4.224,0,6.797,1.705,8.213,3.135,3.787,3.896,3.787,10.099,0,13.993-1.217,1.217-2.719,2.109-4.369,2.595,1.368,3.184,2.773,6.391,4.213,9.622,1.178,2.64,2.358,5.251,3.543,7.835h-4.801c-.85-2.049-1.715-4.108-2.598-6.179-1.555-3.641-3.12-7.22-4.697-10.737h-7.006l.033,16.911h-4.113Zm4.079-20.756h7.503c2.24,0,4.138-.619,5.393-1.888,1.081-1.093,1.542-2.807,1.542-4.399,0-3.545-2.086-6.607-6.935-6.607h-7.502v12.895Z" fill="#363d50"/>
      <path d="M400.996,292.288c-.672,3.8-2.123,7.355-4.198,9.963-2.589,3.253-5.979,5.045-9.517,5.045-3.924,0-7.559-2.146-10.236-6.04-2.518-3.663-3.904-8.495-3.904-13.606v-.01c0-5.112,1.387-9.944,3.904-13.606,2.678-3.895,6.312-6.04,10.236-6.04,3.537,0,6.91,1.791,9.5,5.044,2.104,2.645,3.58,6.136,4.24,9.964h-4.354c-1.225-6.444-4.625-11.484-9.387-11.484-2.545,0-5.023,1.823-6.92,4.582-2.057,2.991-2.986,7.243-2.986,11.541v.01c0,4.298,.93,8.549,2.986,11.541,1.896,2.758,4.375,4.582,6.92,4.582,4.879,0,8.131-5.096,9.357-11.484h4.357Z" fill="#363d50"/>
      <path d="M423.177,306.233c.099-6.153,.148-12.394,.147-18.721-.002-6.237-.051-12.391-.147-18.459h4.118c-.097,5.464-.15,11.004-.161,16.619,2.739,.093,5.442,.145,8.356,.145,2.666,0,5.236-.043,7.757-.121-.01-5.617-.059-11.164-.146-16.643h4.118c-.108,6.078-.163,12.249-.163,18.515,0,6.317,.056,12.539,.163,18.665h-4.118c.088-5.479,.137-11.025,.146-16.642-2.548-.077-5.031-.119-7.756-.117-2.846,.002-5.664,.051-8.358,.14,.012,5.616,.065,11.156,.161,16.619h-4.118Z" fill="#363d50"/>
      <path d="M501.949,306.232c.102-6.391,.15-12.872,.146-19.443-.006-5.987-.055-11.899-.146-17.735h4.299c3.107,6.058,6.333,12.179,9.678,18.361,2.006,3.71,4.018,7.372,6.032,10.985,.085-4.063,.134-8.185,.147-12.362,.017-5.766-.033-11.422-.147-16.97h4.034c-.095,6.28-.141,12.644-.139,19.09,.004,6.101,.05,12.126,.139,18.075h-4.307c-2.828-5.524-5.763-11.109-8.803-16.756-2.297-4.262-4.597-8.454-6.9-12.576-.075,3.714-.122,7.472-.141,11.274-.025,6.134,.021,12.153,.141,18.058h-4.033Z" fill="#363d50"/>
      <path d="M549.86,306.233c.226-15.001,.191-22.939,0-37.18h21.851v4.03l-17.85-.504v13.136c5.111,.073,7.926,.058,12.888-.097v4.03c-5.055-.161-7.653-.185-12.888-.099v13.11l17.85-.458v4.03h-21.851Z" fill="#363d50"/>
      <path d="M601.807,272.591c-3.911,.039-7.791,.182-11.792,.491v-4.029h27.705v4.029c-3.966-.319-7.873-.463-11.797-.496-.072,4.95-.109,9.961-.109,15.033,.002,6.301,.057,12.505,.164,18.613h-4.221c.1-6.137,.149-12.359,.148-18.668-.002-5.046-.034-10.038-.099-14.974Z" fill="#363d50"/>
      <path d="M667.444,269.054c-.918,5.591-1.802,11.187-2.65,16.786-1.029,6.789-2.008,13.587-2.937,20.394h-4.068c-1.262-6.117-2.689-12.357-4.285-18.722-.529-2.107-1.066-4.193-1.615-6.258-.559,2.108-1.107,4.239-1.645,6.392-1.574,6.321-2.992,12.517-4.255,18.588h-4.069c-.902-6.607-1.852-13.206-2.847-19.797-.876-5.799-1.79-11.593-2.739-17.383h4.298c.608,5.3,1.296,10.69,2.06,16.174,.5,3.581,.971,7.252,1.512,10.763l.162,2.182,.21-1.847c.8-3.183,1.585-6.544,2.35-9.813,1.077-4.618,2.079-9.155,3.005-13.612h3.92c.885,4.299,1.846,8.677,2.885,13.134,.803,3.442,1.627,6.966,2.471,10.299l.209,1.84,.16-2.188c.553-3.587,1.033-7.336,1.541-10.996,.749-5.4,1.426-10.713,2.031-15.936h4.298Z" fill="#363d50"/>
      <path d="M691.449,301.254c-2.521-3.663-3.911-8.497-3.911-13.611s1.39-9.947,3.911-13.61c2.682-3.896,6.322-6.041,10.252-6.041s7.569,2.146,10.251,6.041c2.522,3.663,3.911,8.497,3.911,13.61s-1.389,9.948-3.911,13.611c-2.682,3.896-6.322,6.04-10.251,6.04s-7.57-2.145-10.252-6.04Zm.29-13.61c0,4.299,.999,8.652,3.06,11.645,1.899,2.76,4.352,4.5,6.902,4.5s5.002-1.74,6.902-4.5c2.06-2.992,3.059-7.346,3.059-11.645s-.999-8.652-3.059-11.645c-1.9-2.76-4.352-4.5-6.902-4.5s-5.002,1.74-6.902,4.5c-2.061,2.992-3.06,7.346-3.06,11.645Z" fill="#363d50"/>
      <path d="M737.945,306.229c.227-14.994,.191-22.933,0-37.166l11.582-.009c4.224,0,6.797,1.705,8.213,3.135,3.787,3.896,3.787,10.099,0,13.993-1.217,1.217-2.719,2.109-4.369,2.595,1.368,3.184,2.773,6.391,4.213,9.622,1.178,2.64,2.358,5.251,3.543,7.835h-4.801c-.85-2.049-1.715-4.108-2.598-6.179-1.555-3.641-3.12-7.22-4.697-10.737h-7.006l.033,16.911h-4.113Zm4.079-20.756h7.503c2.24,0,4.138-.619,5.393-1.888,1.081-1.093,1.542-2.807,1.542-4.399,0-3.545-2.086-6.607-6.935-6.607h-7.502v12.895Z" fill="#363d50"/>
      <path d="M783.306,306.233c.098-6.137,.148-12.383,.148-18.692,0-6.221-.051-12.436-.148-18.487h4.068c-.104,5.941-.16,12.049-.163,18.174,1.88-2.52,3.763-5.079,5.648-7.679,2.558-3.529,5.048-7.027,7.468-10.495h4.988c-3.121,4.15-6.225,8.314-9.311,12.492-.702,.949-1.407,1.898-2.115,2.849l12.814,21.838h-4.797c-1.344-2.561-2.749-5.152-4.216-7.775-2.083-3.717-4.175-7.301-6.274-10.751-1.406,1.887-2.811,3.775-4.19,5.666,.024,4.34,.073,8.626,.147,12.86h-4.068Z" fill="#363d50"/>
    </g>
    <g>
      <path d="M287.33,186.703c1.809,16.891-8.961,35.337-32.521,37.859l-42.603,4.562,4.354-6.535c-.721-8.852-2.352-27.5-5.422-56.181-2.888-26.964-4.982-43.517-6.104-51.851l-6.3-6.082,42.058-4.504c12.896-1.381,24.384,3.276,31.326,12.797,7.082,9.829,8.446,22.667,3.587,33.766-1.591,3.578-4.644,7.208-8.076,9.795,11.322,4.192,18.542,15.557,19.7,26.374Zm-64.439-27.035l23.84-2.552c10.417-1.137,15.224-7.217,17.235-11.738,2.95-6.625,1.939-16.109-2.34-21.978-2.938-4.032-9.011-9.389-19.527-8.263l-23.704,2.538,4.496,41.992Zm30.832,53.706c15.74-1.686,21.459-14.846,20.346-25.249-1.114-10.405-9.333-20.583-25.073-18.897l-24.797,2.654,4.728,44.146,24.793-2.654h.004Z" fill="#363d50"/>
      <path d="M371.753,79.185l4.039,18.962-8.382-5.706-50.248,10.211,8.926,41.9c14.737-2.917,23.481-4.803,36.562-7.971l3.68-5.086,4.436,20.82-5.441-3.151c-13.378,2.442-21.616,4.164-36.629,7.62l8.909,41.819,50.089-11.03,5.318-8.604,4.036,18.947-75.359,16.054,4.226-8.018c-8.155-41.112-13.494-65.783-22.255-104.467l-7.8-6.133,75.894-16.168Z" fill="#363d50"/>
      <path d="M436.584,82.521c-12.875,.933-25.656,2.86-38.233,5.766l-.734-13.898,90.326-4.775,.734,13.898c-12.813-1.613-25.738-2.192-38.645-1.732,.637,16.603,1.406,33.671,2.299,50.541,.984,18.562,2.098,36.862,3.342,54.898l6.407,5.319-25.789,1.363,5.804-5.956c-.69-18.152-1.53-36.529-2.516-55.128-.889-16.78-1.903-33.766-2.995-50.296Z" fill="#363d50"/>
      <path d="M551.275,84.254c-12.858-1.144-25.784-1.289-38.665-.438l1.503-13.838,89.929,9.766-1.503,13.838c-12.391-3.646-25.056-6.29-37.87-7.905-2.033,16.491-4.009,33.463-5.832,50.259-2.004,18.48-3.838,36.724-5.502,54.727l5.473,6.277-25.675-2.788,6.683-4.948c2.229-18.029,4.346-36.305,6.354-54.821,1.812-16.707,3.534-33.636,5.105-50.128Z" fill="#363d50"/>
      <path d="M701.411,101.391l-3.91,18.989-5.388-8.591-50.122-10.812-8.64,41.961c14.67,3.241,23.436,5.023,36.688,7.371l5.411-3.182-4.293,20.851-3.719-5.07c-13.233-3.132-21.471-4.861-36.608-7.72l-8.623,41.88,50.306,9.998,8.324-5.748-3.906,18.976-75.468-15.538,7.088-5.648c9.028-40.93,14.039-65.669,21.54-104.617l-4.684-8.748,76.003,15.648Z" fill="#363d50"/>
      <path d="M725.418,221.199l4.767,5.168-24.152-1.942,6.131-4.81c4.057-42.759,6.021-68.185,8.735-108.373l-5.984-7.882,44.169,3.552c13.743,1.105,21.654,7.564,25.886,12.579,11.312,13.633,9.691,33.798-3.654,45.444-4.278,3.637-9.399,6.141-14.896,7.285,3.623,10.696,7.355,21.48,11.199,32.351,3.142,8.882,6.302,17.673,9.483,26.373l-15.626-1.257c-2.226-6.875-4.507-13.791-6.839-20.746-4.108-12.229-8.268-24.264-12.48-36.102l-22.803-1.834-3.936,50.193Zm4.938-62.677l24.417,1.964c7.293,.586,13.629-.93,18.043-4.72,3.805-3.266,5.753-8.713,6.169-13.887,.926-11.51-5.064-22.002-20.842-23.271l-24.417-1.964-3.37,41.877Z" fill="#363d50"/>
    </g>
    <g>
      <path d="M110.293,355.666c-12.906,.21-25.776,1.418-38.497,3.613l.046-13.918,90.453,.295-.045,13.918c-12.704-2.329-25.576-3.632-38.488-3.896-.295,16.612-.482,33.697-.537,50.591-.057,18.589,.029,36.923,.26,55.001l6.1,5.67-25.825-.084,6.128-5.622c.328-18.162,.52-36.558,.578-55.183,.054-16.804-.008-33.82-.172-50.386Z" fill="#363d50"/>
      <path d="M253.018,456.131c-9.621,12.075-21.969,18.233-34.765,17.338-12.798-.895-24.165-8.711-32.012-22.009-7.381-12.506-10.804-28.566-9.639-45.222s6.79-32.083,15.84-43.439c9.622-12.075,21.969-18.233,34.765-17.338,12.796,.895,24.166,8.711,32.013,22.009,7.379,12.506,10.801,28.566,9.637,45.222-1.165,16.655-6.79,32.082-15.839,43.439Zm2.156-44.396c.979-14-1.282-28.407-7.311-38.621-5.558-9.423-13.146-15.649-21.455-16.23s-16.688,4.527-23.507,13.085c-7.391,9.275-11.638,23.228-12.617,37.228s1.285,28.407,7.312,38.621c5.56,9.423,13.147,15.649,21.456,16.23,8.31,.581,16.689-4.528,23.506-13.085,7.392-9.275,11.638-23.228,12.616-37.228Z" fill="#363d50"/>
      <path d="M385.669,417.639c-.039,1.024-.091,2.051-.161,3.082l-12.902-2.561c1.168-23.021-6.228-41.623-22.379-44.828-8.15-1.616-17.25,2.649-25.076,10.279-8.487,8.274-14.165,21.3-16.896,35.064l-.006,.029c-2.731,13.766-2.457,27.973,2.228,38.86,4.319,10.04,11.102,17.457,19.251,19.074,18.685,3.707,32.396-13.137,38.018-32.894l-25.955-4.038,2.486-12.529,40.1,7.956c-.011-.002-.45,1.876-.496,2.063-3.756,15.497-10.292,30.158-22.655,40.627-10.358,8.772-22.41,12.345-33.737,10.098-12.566-2.493-22.846-11.674-28.945-25.851-5.735-13.329-7.104-29.686-3.856-46.058l.006-.029c3.249-16.372,10.76-30.967,21.149-41.097,11.05-10.773,24.057-15.333,36.622-12.84,11.327,2.247,20.455,10.022,26.681,22.085,1.449,2.662,2.576,5.486,3.356,8.415,6.748,.54,11.521-.982,11.521-.982-4.601,8.001-7.447,16.888-8.352,26.072Z" fill="#363d50"/>
      <path d="M493.775,386.487l-1.553,19.325-6.4-7.865-51.069-4.586-3.43,42.704c14.956,1.418,23.874,2.112,37.315,2.817l4.979-3.82-1.704,21.22-4.312-4.576c-13.518-1.486-21.904-2.192-37.278-3.174l-3.424,42.62,51.152,3.756,7.557-6.725-1.551,19.311-76.804-6.169,6.342-6.474c3.943-41.729,5.883-66.896,8.552-106.469l-5.72-8.108,77.348,6.213Z" fill="#363d50"/>
      <path d="M550.354,391.168c-12.719,2.203-25.247,5.388-37.476,9.523l-2.107-13.758,89.411-13.697,2.108,13.758c-12.912-.336-25.83,.368-38.628,2.104,2.277,16.458,4.734,33.366,7.293,50.065,2.818,18.374,5.738,36.475,8.762,54.299l6.903,4.658-25.527,3.911,5.185-6.502c-2.484-17.994-5.14-36.198-7.962-54.608-2.547-16.61-5.238-33.412-7.962-49.753Z" fill="#363d50"/>
      <path d="M710.952,412.383c3.008,18.594,6.119,36.906,9.333,54.939l6.345,4.263-24.134,3.899,4.674-6.035c-2.347-16.027-4.827-32.218-7.442-48.572-8.251,1.075-16.276,2.234-25.06,3.66-9.173,1.489-18.229,3.115-26.868,4.805,2.675,16.337,5.429,32.456,8.262,48.356l6.346,4.263-24.134,3.899,4.674-6.036c-2.665-18.208-5.504-36.628-8.517-55.26-2.97-18.343-6.031-36.438-9.184-54.284l-6.338-4.262,24.134-3.9-4.68,6.05c2.315,15.982,4.778,32.146,7.388,48.492,8.877-1.127,17.62-2.371,27.009-3.888,8.594-1.389,16.858-2.865,24.942-4.431-2.672-16.345-5.416-32.491-8.232-48.439l-6.338-4.262,24.133-3.9-4.678,6.05c2.601,17.968,5.389,36.166,8.365,54.593Z" fill="#363d50"/>
      <path d="M812.839,345.51l1.051,19.356-7.396-6.936-51.22,2.298,2.322,42.774c15.01-.598,23.94-1.104,37.354-2.206l4.423-4.453,1.154,21.255-4.887-3.957c-13.594,.339-21.999,.762-37.365,1.85l2.317,42.691,51.19-3.131,6.588-7.676,1.05,19.343-76.932,4.177,5.416-7.266c-1.683-41.877-3.132-67.075-5.789-106.647l-6.754-7.268,77.478-4.205Z" fill="#363d50"/>
      <path d="M857.159,462.149l5.171,4.765-24.231,.023,5.722-5.292c.573-42.948,.47-68.451-.087-108.729l-6.604-7.37,44.313-.043c13.788-.014,22.197,5.782,26.821,10.438,12.383,12.67,12.402,32.901,.045,45.593-3.97,3.972-8.871,6.883-14.256,8.47,4.479,10.368,9.074,20.813,13.787,31.337,3.852,8.598,7.715,17.104,11.592,25.518l-15.677,.015c-2.775-6.672-5.61-13.38-8.499-20.123-5.088-11.857-10.21-23.515-15.369-34.972l-22.877,.021,.148,50.35Zm-.163-62.873l24.497-.024c7.316-.007,13.509-2.031,17.602-6.168,3.526-3.563,5.026-9.15,5.021-14.341-.011-11.548-6.832-21.52-22.662-21.505l-24.496,.024,.038,42.014Z" fill="#363d50"/>
    </g>
    <g>
      <rect x="122.745" y="211.137" width="18.316" height="18.316" transform="translate(-117.138 157.793) rotate(-45)" fill="#363d50"/>
      <rect x="850.168" y="211.137" width="18.316" height="18.316" transform="translate(95.92 672.16) rotate(-45)" fill="#363d50"/>
    </g>
  </g>
</svg>